<svg width="150" height="150" viewBox="0 0 150 150" fill="none" xmlns="http://www.w3.org/2000/svg">
<path d="M72.3219 150C92.9234 150 112.681 141.816 127.249 127.249C141.816 112.681 150 92.9234 150 72.3219C150 40.8488 131.92 12.6302 103.925 0.446143C102.939 0.016151 101.846 -0.106702 100.788 0.0935931C99.7307 0.293889 98.7581 0.808045 97.9971 1.56907C97.2361 2.33009 96.7219 3.30268 96.5216 4.36013C96.3213 5.41757 96.4442 6.51083 96.8742 7.49744C100.088 14.8769 101.786 24.3288 101.786 34.8221C101.786 71.746 71.746 101.786 34.8221 101.786C24.3288 101.786 14.8769 100.088 7.49745 96.8742C6.51084 96.4442 5.41758 96.3213 4.36013 96.5216C3.30269 96.7219 2.33009 97.2361 1.56907 97.9971C0.808046 98.7581 0.293893 99.7307 0.0935976 100.788C-0.106698 101.846 0.0161507 102.939 0.446143 103.925C12.6302 131.92 40.8488 150 72.3219 150Z" fill="#F0F0F0"/>
</svg>
