<svg width="190" height="190" viewBox="0 0 190 190" fill="none" xmlns="http://www.w3.org/2000/svg">
<path d="M92.3219 170C112.923 170 132.681 161.816 147.249 147.249C161.816 132.681 170 112.923 170 92.3219C170 60.8488 151.92 32.6302 123.925 20.4461C122.939 20.0162 121.846 19.8933 120.788 20.0936C119.731 20.2939 118.758 20.808 117.997 21.5691C117.236 22.3301 116.722 23.3027 116.522 24.3601C116.321 25.4176 116.444 26.5108 116.874 27.4974C120.088 34.8769 121.786 44.3288 121.786 54.8221C121.786 91.746 91.746 121.786 54.8221 121.786C44.3288 121.786 34.8769 120.088 27.4975 116.874C26.5108 116.444 25.4176 116.321 24.3601 116.522C23.3027 116.722 22.3301 117.236 21.5691 117.997C20.808 118.758 20.2939 119.731 20.0936 120.788C19.8933 121.846 20.0162 122.939 20.4461 123.925C32.6302 151.92 60.8488 170 92.3219 170Z" fill="#F0F0F0"/>
<g filter="url(#filter0_f_258_209)">
<path d="M92.3219 170C112.923 170 132.681 161.816 147.249 147.249C161.816 132.681 170 112.923 170 92.3219C170 60.8488 151.92 32.6302 123.925 20.4461C122.939 20.0162 121.846 19.8933 120.788 20.0936C119.731 20.2939 118.758 20.808 117.997 21.5691C117.236 22.3301 116.722 23.3027 116.522 24.3601C116.321 25.4176 116.444 26.5108 116.874 27.4974C120.088 34.8769 121.786 44.3288 121.786 54.8221C121.786 91.746 91.746 121.786 54.8221 121.786C44.3288 121.786 34.8769 120.088 27.4975 116.874C26.5108 116.444 25.4176 116.321 24.3601 116.522C23.3027 116.722 22.3301 117.236 21.5691 117.997C20.808 118.758 20.2939 119.731 20.0936 120.788C19.8933 121.846 20.0162 122.939 20.4461 123.925C32.6302 151.92 60.8488 170 92.3219 170Z" fill="#F0F0F0"/>
</g>
<g filter="url(#filter1_f_258_209)">
<path d="M148 82C143.333 103.333 122.8 145.2 78 142" stroke="white" stroke-width="11" stroke-linecap="round"/>
</g>
<defs>
<filter id="filter0_f_258_209" x="0" y="0" width="190" height="190" filterUnits="userSpaceOnUse" color-interpolation-filters="sRGB">
<feFlood flood-opacity="0" result="BackgroundImageFix"/>
<feBlend mode="normal" in="SourceGraphic" in2="BackgroundImageFix" result="shape"/>
<feGaussianBlur stdDeviation="10" result="effect1_foregroundBlur_258_209"/>
</filter>
<filter id="filter1_f_258_209" x="60.4998" y="64.4988" width="105.001" height="95.175" filterUnits="userSpaceOnUse" color-interpolation-filters="sRGB">
<feFlood flood-opacity="0" result="BackgroundImageFix"/>
<feBlend mode="normal" in="SourceGraphic" in2="BackgroundImageFix" result="shape"/>
<feGaussianBlur stdDeviation="6" result="effect1_foregroundBlur_258_209"/>
</filter>
</defs>
</svg>
