<svg width="215" height="163" viewBox="0 0 215 163" fill="none" xmlns="http://www.w3.org/2000/svg">
<g filter="url(#filter0_f_258_208)">
<path d="M47.6868 87.9672C50.8862 118.787 76.4877 142.872 107.503 142.872C115.923 142.882 124.251 141.075 131.939 137.57C118.164 131.8 103.21 124.246 88.2664 115.453C73.6643 106.869 59.5955 97.3188 47.6868 87.9672ZM188.416 110.587C185.511 106.639 181.58 102.279 176.795 97.6714C175.882 101.732 174.624 105.703 173.035 109.54C182.852 119.837 184.383 125.366 184.031 126.452C183.347 127.231 178.203 128.857 164.155 125.22C162.143 124.699 159.942 124.063 157.551 123.314C156.011 122.83 154.44 122.307 152.838 121.747C155.354 118.799 157.59 115.614 159.517 112.235C159.575 112.133 159.636 112.032 159.694 111.927C164.914 102.649 167.661 92.1363 167.662 81.4362C167.663 79.2208 167.549 77.0069 167.32 74.8038C164.049 44.0264 138.471 20 107.503 20C94.3637 19.9925 81.5856 24.3942 71.1349 32.5281C64.8008 37.4515 59.4779 43.6003 55.4698 50.6238C55.4151 50.7251 55.3536 50.8263 55.2955 50.9275C53.3906 54.3166 51.8077 57.8841 50.5683 61.5811C49.2945 60.4478 48.0651 59.3226 46.8802 58.2056C45.0378 56.4603 43.404 54.8441 41.9513 53.3186C31.844 42.7558 30.6408 37.3976 30.9587 36.4063C31.697 35.558 37.1454 34.1233 50.8281 37.6454C53.299 34.3221 56.0435 31.2204 59.0315 28.3742C52.585 26.4159 46.7981 25.1104 41.9239 24.5344C31.4201 23.3057 24.5464 25.4176 21.4872 30.8211C20.3797 32.769 19.3167 36.0886 20.5574 40.8045C22.393 47.8068 28.9352 56.3032 38.1948 65.2044C41.1446 68.0424 44.3679 70.9187 47.8065 73.8055C50.3085 75.8999 52.9336 78.0153 55.6339 80.1167C57.4364 81.513 59.2764 82.9092 61.1541 84.3055C63.0318 85.7018 64.9345 87.0725 66.8623 88.4175C75.5477 94.5646 84.7253 100.467 93.7251 105.763C96.9928 107.685 100.256 109.547 103.515 111.348C106.773 113.149 110.005 114.872 113.212 116.518C120.697 120.357 128.029 123.82 135.04 126.791C138.045 128.066 140.986 129.248 143.862 130.337C147.926 131.88 151.85 133.238 155.589 134.383L155.965 134.498C164.76 137.172 172.174 138.579 178.005 138.687H178.6C185.996 138.687 191.007 136.46 193.496 132.055C196.603 126.602 194.89 119.376 188.416 110.587Z" fill="#F0F0F0"/>
</g>
<path d="M47.6868 87.9672C50.8862 118.787 76.4877 142.872 107.503 142.872C115.923 142.882 124.251 141.075 131.939 137.57C118.164 131.8 103.21 124.246 88.2664 115.453C73.6643 106.869 59.5955 97.3188 47.6868 87.9672ZM188.416 110.587C185.511 106.639 181.58 102.279 176.795 97.6714C175.882 101.732 174.624 105.703 173.035 109.54C182.852 119.837 184.383 125.366 184.031 126.452C183.347 127.231 178.203 128.857 164.155 125.22C162.143 124.699 159.942 124.063 157.551 123.314C156.011 122.83 154.44 122.307 152.838 121.747C155.354 118.799 157.59 115.614 159.517 112.235C159.575 112.133 159.636 112.032 159.694 111.927C164.914 102.649 167.661 92.1363 167.662 81.4362C167.663 79.2208 167.549 77.0069 167.32 74.8038C164.049 44.0264 138.471 20 107.503 20C94.3637 19.9925 81.5856 24.3942 71.1349 32.5281C64.8008 37.4515 59.4779 43.6003 55.4698 50.6238C55.4151 50.7251 55.3536 50.8263 55.2955 50.9275C53.3906 54.3166 51.8077 57.8841 50.5683 61.5811C49.2945 60.4478 48.0651 59.3226 46.8802 58.2056C45.0378 56.4603 43.404 54.8441 41.9513 53.3186C31.844 42.7558 30.6408 37.3976 30.9587 36.4063C31.697 35.558 37.1454 34.1233 50.8281 37.6454C53.299 34.3221 56.0435 31.2204 59.0315 28.3742C52.585 26.4159 46.7981 25.1104 41.9239 24.5344C31.4201 23.3057 24.5464 25.4176 21.4872 30.8211C20.3797 32.769 19.3167 36.0886 20.5574 40.8045C22.393 47.8068 28.9352 56.3032 38.1948 65.2044C41.1446 68.0424 44.3679 70.9187 47.8065 73.8055C50.3085 75.8999 52.9336 78.0153 55.6339 80.1167C57.4364 81.513 59.2764 82.9092 61.1541 84.3055C63.0318 85.7018 64.9345 87.0725 66.8623 88.4175C75.5477 94.5646 84.7253 100.467 93.7251 105.763C96.9928 107.685 100.256 109.547 103.515 111.348C106.773 113.149 110.005 114.872 113.212 116.518C120.697 120.357 128.029 123.82 135.04 126.791C138.045 128.066 140.986 129.248 143.862 130.337C147.926 131.88 151.85 133.238 155.589 134.383L155.965 134.498C164.76 137.172 172.174 138.579 178.005 138.687H178.6C185.996 138.687 191.007 136.46 193.496 132.055C196.603 126.602 194.89 119.376 188.416 110.587Z" fill="#F0F0F0"/>
<g filter="url(#filter1_f_258_208)">
<ellipse cx="119.5" cy="69.7207" rx="30.1557" ry="20.6522" transform="rotate(37.3924 119.5 69.7207)" fill="white"/>
</g>
<defs>
<filter id="filter0_f_258_208" x="0" y="0" width="215" height="162.872" filterUnits="userSpaceOnUse" color-interpolation-filters="sRGB">
<feFlood flood-opacity="0" result="BackgroundImageFix"/>
<feBlend mode="normal" in="SourceGraphic" in2="BackgroundImageFix" result="shape"/>
<feGaussianBlur stdDeviation="10" result="effect1_foregroundBlur_258_208"/>
</filter>
<filter id="filter1_f_258_208" x="75.4519" y="28.1323" width="88.0962" height="83.1768" filterUnits="userSpaceOnUse" color-interpolation-filters="sRGB">
<feFlood flood-opacity="0" result="BackgroundImageFix"/>
<feBlend mode="normal" in="SourceGraphic" in2="BackgroundImageFix" result="shape"/>
<feGaussianBlur stdDeviation="8.5" result="effect1_foregroundBlur_258_208"/>
</filter>
</defs>
</svg>
