<svg width="175" height="123" viewBox="0 0 175 123" fill="none" xmlns="http://www.w3.org/2000/svg">
<path d="M27.6868 67.9672C30.8862 98.7865 56.4877 122.872 87.5034 122.872C95.9235 122.882 104.251 121.075 111.939 117.57C98.1645 111.8 83.2103 104.246 68.2664 95.4529C53.6643 86.8693 39.5955 77.3188 27.6868 67.9672ZM168.416 90.5869C165.511 86.6389 161.58 82.2791 156.795 77.6714C155.882 81.7316 154.624 85.7027 153.035 89.5397C162.852 99.8372 164.383 105.366 164.031 106.452C163.347 107.231 158.203 108.857 144.155 105.22C142.143 104.699 139.942 104.063 137.551 103.314C136.011 102.83 134.44 102.307 132.838 101.747C135.354 98.7992 137.59 95.6142 139.517 92.2345C139.575 92.1333 139.636 92.0321 139.694 91.9273C144.914 82.6493 147.661 72.1363 147.662 61.4362C147.663 59.2208 147.549 57.0069 147.32 54.8038C144.049 24.0264 118.471 9.6947e-06 87.5034 9.6947e-06C74.3637 -0.00753971 61.5856 4.39423 51.1349 12.5281C44.8008 17.4515 39.4779 23.6003 35.4698 30.6238C35.4151 30.7251 35.3536 30.8263 35.2955 30.9275C33.3906 34.3166 31.8077 37.8841 30.5683 41.5811C29.2945 40.4478 28.0651 39.3226 26.8802 38.2056C25.0378 36.4603 23.404 34.8441 21.9513 33.3186C11.844 22.7558 10.6408 17.3976 10.9587 16.4063C11.697 15.558 17.1454 14.1233 30.8281 17.6454C33.299 14.3221 36.0435 11.2204 39.0315 8.37417C32.585 6.4159 26.7981 5.11038 21.9239 4.53442C11.4201 3.30569 4.54636 5.41756 1.48717 10.8211C0.379707 12.769 -0.683319 16.0886 0.557448 20.8045C2.39296 27.8068 8.93519 36.3032 18.1948 45.2044C21.1446 48.0424 24.3679 50.9187 27.8065 53.8055C30.3085 55.8999 32.9336 58.0153 35.6339 60.1167C37.4364 61.513 39.2764 62.9092 41.1541 64.3055C43.0318 65.7018 44.9345 67.0725 46.8623 68.4175C55.5477 74.5646 64.7253 80.4674 73.7251 85.7628C76.9928 87.685 80.2559 89.5467 83.5145 91.3479C86.7731 93.1491 90.0055 94.8723 93.2116 96.5176C100.697 100.357 108.029 103.82 115.04 106.791C118.045 108.066 120.986 109.248 123.862 110.337C127.926 111.88 131.85 113.238 135.589 114.383L135.965 114.498C144.76 117.172 152.174 118.579 158.005 118.687H158.6C165.996 118.687 171.007 116.46 173.496 112.055C176.603 106.602 174.89 99.3765 168.416 90.5869Z" fill="#F0F0F0"/>
</svg>
