<svg width="153" height="156" viewBox="0 0 153 156" fill="none" xmlns="http://www.w3.org/2000/svg">
<g clip-path="url(#clip0_254_176)">
<g filter="url(#filter0_f_254_176)">
<path d="M143.134 124.313C143.134 114.416 139.854 104.715 133.622 96.2325L114.507 70.2L114.507 124.8L143.134 124.8L143.134 124.313ZM38.169 70.2L19.0547 96.2325C12.8224 104.715 9.54223 114.416 9.54223 124.313L9.54223 124.8L38.169 124.8L38.169 70.2ZM38.169 132.6L9.54224 132.6L9.54224 136.5C9.54224 142.959 15.9534 148.2 23.8556 148.2L38.169 148.2L38.169 146.25C38.169 151.637 43.5067 156 50.0969 156L102.579 156C109.169 156 114.507 151.637 114.507 146.25L114.507 148.2L128.821 148.2C136.723 148.2 143.134 142.959 143.134 136.5L143.134 132.6L114.507 132.6L114.507 130.65C114.507 124.264 110.75 118.609 104.965 115.05L104.965 44.85C104.965 27.9582 98.1958 11.9438 80.6321 1.17003C78.0974 -0.389965 74.5787 -0.389965 72.0441 1.17003C54.4803 11.9438 47.7113 27.9582 47.7113 44.85L47.7113 115.05C41.9263 118.609 38.169 124.264 38.169 130.65L38.169 132.6ZM72.6405 31.2L80.0655 31.2C85.9102 31.2 90.6813 35.0757 90.6813 39.8775C90.6813 40.4869 90.0849 40.95 89.3693 40.95L63.3368 40.95C62.5913 40.95 62.0247 40.4625 62.0247 39.8775C62.0247 35.1 66.766 31.2 72.6405 31.2Z" fill="#F5F5F5"/>
</g>
<path d="M143.134 124.313C143.134 114.416 139.854 104.715 133.622 96.2325L114.507 70.2L114.507 124.8L143.134 124.8L143.134 124.313ZM38.169 70.2L19.0547 96.2325C12.8224 104.715 9.54223 114.416 9.54223 124.313L9.54223 124.8L38.169 124.8L38.169 70.2ZM38.169 132.6L9.54224 132.6L9.54224 136.5C9.54224 142.959 15.9534 148.2 23.8556 148.2L38.169 148.2L38.169 146.25C38.169 151.637 43.5067 156 50.0969 156L102.579 156C109.169 156 114.507 151.637 114.507 146.25L114.507 148.2L128.821 148.2C136.723 148.2 143.134 142.959 143.134 136.5L143.134 132.6L114.507 132.6L114.507 130.65C114.507 124.264 110.75 118.609 104.965 115.05L104.965 44.85C104.965 27.9582 98.1958 11.9438 80.6321 1.17003C78.0974 -0.389965 74.5787 -0.389965 72.0441 1.17003C54.4803 11.9438 47.7113 27.9582 47.7113 44.85L47.7113 115.05C41.9263 118.609 38.169 124.264 38.169 130.65L38.169 132.6ZM72.6405 31.2L80.0655 31.2C85.9102 31.2 90.6813 35.0757 90.6813 39.8775C90.6813 40.4869 90.0849 40.95 89.3693 40.95L63.3368 40.95C62.5913 40.95 62.0247 40.4625 62.0247 39.8775C62.0247 35.1 66.766 31.2 72.6405 31.2Z" fill="#F5F5F5"/>
<g filter="url(#filter1_f_254_176)">
<rect x="65" y="62" width="22" height="86" fill="white"/>
</g>
</g>
<defs>
<filter id="filter0_f_254_176" x="-10.4578" y="-20" width="173.592" height="196" filterUnits="userSpaceOnUse" color-interpolation-filters="sRGB">
<feFlood flood-opacity="0" result="BackgroundImageFix"/>
<feBlend mode="normal" in="SourceGraphic" in2="BackgroundImageFix" result="shape"/>
<feGaussianBlur stdDeviation="10" result="effect1_foregroundBlur_254_176"/>
</filter>
<filter id="filter1_f_254_176" x="49" y="46" width="54" height="118" filterUnits="userSpaceOnUse" color-interpolation-filters="sRGB">
<feFlood flood-opacity="0" result="BackgroundImageFix"/>
<feBlend mode="normal" in="SourceGraphic" in2="BackgroundImageFix" result="shape"/>
<feGaussianBlur stdDeviation="8" result="effect1_foregroundBlur_254_176"/>
</filter>
<clipPath id="clip0_254_176">
<rect width="156" height="152.676" fill="white" transform="translate(0 156) rotate(-90)"/>
</clipPath>
</defs>
</svg>
