<svg width="166" height="156" viewBox="0 0 166 156" fill="none" xmlns="http://www.w3.org/2000/svg">
<g clip-path="url(#clip0_254_168)">
<path d="M143.134 124.313C143.134 114.416 139.854 104.715 133.622 96.2325L114.507 70.2L114.507 124.8L143.134 124.8L143.134 124.313ZM38.169 70.2L19.0547 96.2325C12.8224 104.715 9.54223 114.416 9.54223 124.313L9.54223 124.8L38.169 124.8L38.169 70.2ZM38.169 132.6L9.54224 132.6L9.54224 136.5C9.54224 142.959 15.9534 148.2 23.8556 148.2L38.169 148.2L38.169 146.25C38.169 151.637 43.5067 156 50.0969 156L102.579 156C109.169 156 114.507 151.637 114.507 146.25L114.507 148.2L128.821 148.2C136.723 148.2 143.134 142.959 143.134 136.5L143.134 132.6L114.507 132.6L114.507 130.65C114.507 124.264 110.75 118.609 104.965 115.05L104.965 44.85C104.965 27.9582 98.1958 11.9438 80.6321 1.17003C78.0974 -0.389965 74.5787 -0.389965 72.0441 1.17003C54.4803 11.9438 47.7113 27.9582 47.7113 44.85L47.7113 115.05C41.9263 118.609 38.169 124.264 38.169 130.65L38.169 132.6ZM72.6405 31.2L80.0655 31.2C85.9102 31.2 90.6813 35.0757 90.6813 39.8775C90.6813 40.4869 90.0849 40.95 89.3693 40.95L63.3368 40.95C62.5913 40.95 62.0247 40.4625 62.0247 39.8775C62.0247 35.1 66.766 31.2 72.6405 31.2Z" fill="#F5F5F5"/>
</g>
<path d="M165.417 70.9557C165.744 70.9279 166 70.7057 166 70.4364C166 70.3634 165.981 70.2911 165.944 70.2243C165.882 70.3439 165.802 70.4737 165.709 70.6034C165.618 70.7302 165.516 70.8523 165.417 70.9557ZM165.657 69.7341C165.615 69.7593 165.569 69.7934 165.52 69.8349C165.563 69.8429 165.605 69.8538 165.646 69.8676C165.755 69.7824 165.814 69.7691 165.826 69.7721C165.834 69.7781 165.851 69.8227 165.813 69.9447C165.807 69.9621 165.8 69.9812 165.792 70.002C165.787 70.0154 165.782 70.029 165.776 70.0429C165.744 70.0211 165.711 70.0017 165.675 69.9849C165.674 69.9844 165.673 69.9839 165.671 69.9834C165.573 69.9381 165.461 69.9142 165.348 69.9142C165.324 69.9142 165.301 69.9152 165.277 69.9172C164.95 69.9456 164.695 70.1676 164.695 70.4364C164.695 70.5505 164.742 70.6614 164.828 70.7522C164.881 70.8071 164.946 70.8533 165.02 70.8881C165.021 70.8886 165.023 70.8891 165.024 70.8897C165.06 70.9062 165.098 70.9199 165.137 70.9307C165.125 70.9417 165.113 70.9524 165.101 70.9627C165.082 70.9787 165.065 70.9929 165.049 71.0055C164.937 71.0932 164.88 71.1037 164.869 71.1009C164.86 71.0945 164.845 71.0472 164.883 70.9284C164.847 70.907 164.814 70.8832 164.784 70.8572C164.763 70.9132 164.749 70.9634 164.743 71.0057C164.73 71.0969 164.753 71.1566 164.81 71.1831C164.831 71.1927 164.866 71.202 164.916 71.1912C164.99 71.1753 165.081 71.1185 165.175 71.0381C165.205 71.0125 165.236 70.9845 165.267 70.9547C165.289 70.9329 165.311 70.9102 165.334 70.8867C165.348 70.8711 165.363 70.8551 165.378 70.8388C165.393 70.8225 165.407 70.806 165.422 70.7892C165.487 70.7138 165.55 70.6342 165.606 70.5561C165.626 70.5277 165.646 70.4994 165.665 70.4711C165.684 70.4428 165.703 70.4147 165.72 70.3869C165.761 70.3219 165.798 70.2583 165.829 70.1974C165.843 70.1713 165.855 70.1458 165.867 70.1208C165.883 70.0855 165.898 70.0515 165.91 70.019L165.911 70.0158C165.94 69.9394 165.954 69.8751 165.956 69.8244L165.956 69.8193C165.956 69.7551 165.932 69.7116 165.885 69.69C165.827 69.663 165.751 69.6779 165.657 69.7341Z" fill="#F0F0F0"/>
<defs>
<clipPath id="clip0_254_168">
<rect width="156" height="152.676" fill="white" transform="translate(0 156) rotate(-90)"/>
</clipPath>
</defs>
</svg>
