<svg width="162" height="155" viewBox="0 0 162 155" fill="none" xmlns="http://www.w3.org/2000/svg">
<path d="M85.2798 6.2619L99.5022 50.034C100.774 53.9482 104.422 56.5983 108.537 56.5983H154.562C158.921 56.5983 160.734 62.1766 157.207 64.7389L119.972 91.7915C116.643 94.2106 115.249 98.4986 116.521 102.413L130.743 146.185C132.091 150.331 127.345 153.778 123.819 151.216L86.584 124.163C83.2543 121.744 78.7457 121.744 75.416 124.163L38.1813 151.216C34.6546 153.778 29.9094 150.331 31.2565 146.185L45.4789 102.413C46.7507 98.4986 45.3575 94.2106 42.0278 91.7915L4.79309 64.7389C1.26639 62.1766 3.07887 56.5983 7.43814 56.5983H53.4628C57.5785 56.5983 61.226 53.9482 62.4978 50.034L76.7202 6.26189C78.0673 2.116 83.9327 2.11599 85.2798 6.2619Z" fill="#F0F0F0" stroke="#F0F0F0" stroke-width="5"/>
</svg>
