<svg width="202" height="205" viewBox="0 0 202 205" fill="none" xmlns="http://www.w3.org/2000/svg">
<g filter="url(#filter0_f_258_190)">
<path d="M94.3426 25.4893C96.4381 19.0402 105.562 19.0402 107.657 25.4894L121.88 69.2614C122.817 72.1456 125.505 74.0983 128.537 74.0983H174.562C181.343 74.0983 184.162 82.7756 178.676 86.7614L141.442 113.814C138.988 115.597 137.962 118.756 138.899 121.64L153.121 165.412C155.217 171.862 147.835 177.224 142.349 173.239L105.114 146.186C102.661 144.403 99.3389 144.403 96.8855 146.186L59.6508 173.239C54.1648 177.224 46.7834 171.862 48.8789 165.412L63.1013 121.64C64.0384 118.756 63.0118 115.597 60.5584 113.814L23.3236 86.7614C17.8376 82.7756 20.6571 74.0983 27.4381 74.0983H73.4628C76.4954 74.0983 79.1831 72.1456 80.1202 69.2614L94.3426 25.4893Z" fill="#F5F5F5"/>
<path d="M105.28 26.2619L119.502 70.034C120.774 73.9482 124.422 76.5983 128.537 76.5983H174.562C178.921 76.5983 180.734 82.1766 177.207 84.7389L139.972 111.791C136.643 114.211 135.249 118.499 136.521 122.413L150.743 166.185C152.091 170.331 147.345 173.778 143.819 171.216L106.584 144.163C103.254 141.744 98.7457 141.744 95.416 144.163L58.1813 171.216C54.6546 173.778 49.9094 170.331 51.2565 166.185L65.4789 122.413C66.7507 118.499 65.3575 114.211 62.0278 111.791L24.7931 84.7389C21.2664 82.1766 23.0789 76.5983 27.4381 76.5983H73.4628C77.5785 76.5983 81.226 73.9482 82.4978 70.034L96.7202 26.2619C98.0673 22.116 103.933 22.116 105.28 26.2619Z" stroke="#F0F0F0" stroke-width="5"/>
</g>
<path d="M105.28 26.2619L119.502 70.034C120.774 73.9482 124.422 76.5983 128.537 76.5983H174.562C178.921 76.5983 180.734 82.1766 177.207 84.7389L139.972 111.791C136.643 114.211 135.249 118.499 136.521 122.413L150.743 166.185C152.091 170.331 147.345 173.778 143.819 171.216L106.584 144.163C103.254 141.744 98.7457 141.744 95.416 144.163L58.1813 171.216C54.6546 173.778 49.9094 170.331 51.2565 166.185L65.4789 122.413C66.7507 118.499 65.3575 114.211 62.0278 111.791L24.7931 84.7389C21.2664 82.1766 23.0789 76.5983 27.4381 76.5983H73.4628C77.5785 76.5983 81.226 73.9482 82.4978 70.034L96.7202 26.2619C98.0673 22.116 103.933 22.116 105.28 26.2619Z" fill="#F0F0F0" stroke="#F0F0F0" stroke-width="5"/>
<g filter="url(#filter1_f_258_190)">
<path d="M94.3426 75.4893C96.4381 69.0402 105.562 69.0402 107.657 75.4894L110.654 84.7123C111.591 87.5964 114.279 89.5491 117.311 89.5491H127.009C133.79 89.5491 136.61 98.2265 131.124 102.212L123.278 107.912C120.825 109.695 119.798 112.854 120.735 115.739L123.732 124.962C125.827 131.411 118.446 136.774 112.96 132.788L105.114 127.088C102.661 125.305 99.3389 125.305 96.8855 127.088L89.04 132.788C83.554 136.774 76.1727 131.411 78.2681 124.961L81.2648 115.739C82.202 112.854 81.1754 109.695 78.7219 107.912L70.8765 102.212C65.3905 98.2265 68.2099 89.5491 74.991 89.5491H84.6885C87.7211 89.5491 90.4088 87.5964 91.3459 84.7123L94.3426 75.4893Z" fill="white"/>
<path d="M105.28 76.2619L108.276 85.4848C109.548 89.399 113.196 92.0491 117.312 92.0491H127.009C131.368 92.0491 133.181 97.6274 129.654 100.19L121.809 105.89C118.479 108.309 117.086 112.597 118.358 116.511L121.354 125.734C122.701 129.88 117.956 133.327 114.429 130.765L106.584 125.065C103.254 122.646 98.7457 122.646 95.416 125.065L87.5706 130.765C84.0438 133.327 79.2987 129.88 80.6458 125.734L83.6425 116.511C84.9143 112.597 83.521 108.309 80.1914 105.89L72.3459 100.19C68.8192 97.6274 70.6317 92.0491 74.991 92.0491H84.6885C88.8042 92.0491 92.4517 89.399 93.7235 85.4848L96.7202 76.2619C98.0673 72.116 103.933 72.116 105.28 76.2619Z" stroke="#F0F0F0" stroke-width="5"/>
</g>
<defs>
<filter id="filter0_f_258_190" x="0.424805" y="0.652588" width="201.15" height="193.955" filterUnits="userSpaceOnUse" color-interpolation-filters="sRGB">
<feFlood flood-opacity="0" result="BackgroundImageFix"/>
<feBlend mode="normal" in="SourceGraphic" in2="BackgroundImageFix" result="shape"/>
<feGaussianBlur stdDeviation="10" result="effect1_foregroundBlur_258_190"/>
</filter>
<filter id="filter1_f_258_190" x="50.9775" y="53.6526" width="100.045" height="97.5037" filterUnits="userSpaceOnUse" color-interpolation-filters="sRGB">
<feFlood flood-opacity="0" result="BackgroundImageFix"/>
<feBlend mode="normal" in="SourceGraphic" in2="BackgroundImageFix" result="shape"/>
<feGaussianBlur stdDeviation="8.5" result="effect1_foregroundBlur_258_190"/>
</filter>
</defs>
</svg>
